<svg viewBox="0 0 374.99 127.48" xmlns="http://www.w3.org/2000/svg"><path d="M194.86 123.93c-2.56 1-5.2 2.22-7.9 3.55h10.68l-.45-1.92a2.75 2.75 0 01-2.33-1.63zm112.49-99.19c.28.6.54 1.21.8 1.81-.25-.62-.52-1.23-.8-1.81zM79.37 9.75l2.7-.75a6.26 6.26 0 017.46 3.48c.26.57.55 1.19.86 1.85a6.15 6.15 0 01.57 1c.2.44.42.92.65 1.4a91.8 91.8 0 008.12 12.82l.86 1.13A100.42 100.42 0 00107.8 39a122.2 122.2 0 0039.73 27.17 3.17 3.17 0 011.91 3.12 3.22 3.22 0 011.21 3.9l-.7 1.71a6.25 6.25 0 01-8.38 3.32C116.6 66.73 101 51.44 91.49 38.57c-1.53-2.06-2.89-4-4.11-6a98.18 98.18 0 01-5.88-10.48 81.31 81.31 0 01-4-8.74 2.75 2.75 0 011.87-3.6z" fill="none"/><path d="M194.69 123.44l-.08-.33c-3.21 1.22-6.57 2.66-10 4.37H187c2.7-1.33 5.34-2.51 7.9-3.55a2.58 2.58 0 01-.21-.49z" fill="#ffe3ac"/><path d="M194 120.58a5.6 5.6 0 014.42-6.79l.83-.14.07-2.64a5.88 5.88 0 01.3-1.69 128.09 128.09 0 00-37.45 18.16h22.38c3.47-1.71 6.83-3.15 10-4.37z" fill="#ffc043"/><path d="M225.52 21.34c2.6 3.64 6.59 9 11.8 15.16-3.78-6.11-6.67-11.25-8.36-14.34a3.39 3.39 0 01-.4-1.53 6.76 6.76 0 00-5.23-1.25 6.69 6.69 0 012.19 1.96zm-18.03 40.88c-23.77-11-38.75-30.88-43.23-37.46a2.77 2.77 0 00-3.69-.83l-.08.05c5.63 8.02 21.88 28.38 47 38.24zm16.01 33.86a6 6 0 01-4-2.66c-.09 1.22-.16 2.45-.18 3.67 10.69 1.45 21 3.47 30.75 5.76a215.14 215.14 0 00-26.57-6.77zm38.61-52.71l-.56-.88c-.41-.65-.82-1.29-1.22-1.94l-.45-.73c-.54-.87-1.06-1.73-1.57-2.59-.07-.13-.14-.26-.22-.38-.43-.74-.86-1.46-1.27-2.18-.11-.19-.22-.38-.32-.57l-1.14.68c2.13 2.9 4.58 6.1 7.34 9.5zM286 35.05c-.09-.23-.17-.46-.25-.69-.33-.91-.65-1.81-1-2.71l-.31-.9q-.54-1.58-1.05-3.12a.56.56 0 000-.12c-.27-.84-.54-1.68-.8-2.51l-1 .14q2.12 5.28 4.52 10.25z" fill="#ffe3ac"/><path d="M226 71.33a177 177 0 0130.6 10.07A161.06 161.06 0 00213 62.32h-.09l-.32 1.68a81.36 81.36 0 008.2 2.15 6.7 6.7 0 015.21 5.18zm55.16-20.97a171.68 171.68 0 01-13.42-29.84 6.17 6.17 0 012.25-7c-.51-1.3-1-2.48-1.36-3.53a6 6 0 00-7.33-3.6l-2.3.69a3.17 3.17 0 00-2.11 2.13 196.66 196.66 0 0024.27 41.15zm-70.04 74.8l1.22-.22a170.05 170.05 0 0117.25-1.94h-5.06c-1.38 0-2.74 0-4.11.05a125.7 125.7 0 00-22.48 2.59 2.38 2.38 0 01-.75 0l.45 1.92h10.7a3.64 3.64 0 012.78-2.4zm34.11-63.05L243.17 60c-.45-.45-.9-.9-1.33-1.35-.74-.76-1.45-1.51-2.17-2.27l-1.09-1.15c-.08-.09-.17-.17-.24-.26-2.07-2.21-4-4.39-5.87-6.49l-.53-.6c-5.49-3.1-10-5.48-13.28-7.13a6.24 6.24 0 00-8.49 3l-.58 1.25a3.71 3.71 0 001.73 4.85l1.21.61a159.37 159.37 0 0132.7 11.65z" fill="#ab1300"/><path d="M226 71.33a6.7 6.7 0 00-5.19-5.15 81.36 81.36 0 01-8.2-2.15q-2.61-.84-5.1-1.81C182.37 52.36 166.12 32 160.49 24l-.8-1.15A2.76 2.76 0 00156 22l-1.36.8a6.78 6.78 0 00-2 9.84c6.27 8.62 19.51 24.26 39.38 35A143.57 143.57 0 01226 71.33z" fill="#ffc043"/><path d="M218.67 89.32l.45-2.87a2.61 2.61 0 013-2.19 220.13 220.13 0 0125.43 5.88c-3.93-1.57-8-3-12.31-4.39a142.1 142.1 0 00-34.24-6.5 5.23 5.23 0 00-4.21 5.22l.06 3.55a2.58 2.58 0 002.6 2.53c6.7 0 13.13.27 19.3.83a5.91 5.91 0 01-.08-2.06zM199.34 111l-.07 2.64a145 145 0 0140.06-1.46 278.16 278.16 0 00-37.9-5.48 5.79 5.79 0 00-2.09 4.3zM229 22.16c1.69 3.09 4.58 8.23 8.36 14.34a259.86 259.86 0 0025.46 26.37c1.07 1 2.17 1.92 3.27 2.87a245.45 245.45 0 01-27.41-35 6 6 0 012.08-8.39l1.09-.62c-.67-1.17-1.28-2.25-1.81-3.2a5.51 5.51 0 00-7.35-2.2l-2.28 1.18a3.42 3.42 0 00-1.41 4.65z" fill="#ab1300"/><path d="M238.34 55c.19 0 16.59 4.46 30 13.14-.78-.8-1.54-1.6-2.29-2.4-1.1-.95-2.2-1.91-3.27-2.87a259.86 259.86 0 01-25.46-26.37c-5.21-6.21-9.2-11.52-11.8-15.16a6.69 6.69 0 00-2.19-2 6.76 6.76 0 00-6.9.18l-1.07.67a3.57 3.57 0 00-1 5 251.87 251.87 0 0017.62 22.65l.53.6c1.8 2.17 3.76 4.35 5.83 6.56zm1.33 1.41l-1.09-1.15zm3.5 3.59c-.45-.45-.9-.9-1.33-1.35.43.48.88.93 1.33 1.35zM294 12.12a94 94 0 005.73 9.38l2.91-5.07v-.11a5.79 5.79 0 00-6.43-4.5l-5.31.72z" fill="#ffc043"/><path d="M290.9 12.54A187.7 187.7 0 00306.62 53a79.72 79.72 0 00-8.49-28.67l1.62-2.84a94 94 0 01-5.75-9.37z" fill="#ff6937"/><path d="M253.81 29.25l-.19-.37zm1.55 2.84l-.43-.78zm4.97 8.46l-.45-.73zm1.78 2.82l-.56-.88zM292.21 67a149.75 149.75 0 01-11-16.65 196.66 196.66 0 01-24.33-41.14c-1-2.21-1.76-4.15-2.38-5.73a5.48 5.48 0 00-6.77-3.22l-.44.14-2.12.68A3.37 3.37 0 00243 5.45c.54 1.47 1.27 3.37 2.2 5.63 1.71 4.18 4.13 9.59 7.31 15.72a212.51 212.51 0 0039.7 40.2zm-33.9-29.77c-.07-.13-.14-.26-.22-.38.08.15.15.25.22.38zm-1.95-3.37l.14.24c.1.19.21.38.32.57z" fill="#ffc043"/><path d="M256.82 34.67c.41.72.84 1.44 1.27 2.18.08.12.15.25.22.38.51.86 1 1.72 1.57 2.59l.45.73c.4.65.81 1.29 1.22 1.94l.56.88.59.91c9.88 12.2 23.73 26.94 40.93 39.4.28-.92.53-1.85.78-2.77A137.21 137.21 0 01292.21 67a212.51 212.51 0 01-39.68-40.2c.35.69.72 1.39 1.1 2.09l.19.37 1.12 2.06.43.78c.33.58.66 1.18 1 1.77z" fill="#ff6937"/><path d="M282.15 23.51zm-.94-3.17c-.3-1-.58-2-.85-3 .27.97.55 1.98.85 3zm1.18 3.95c.08.24.15.47.22.71a356.391 356.391 0 00-.22-.71zm24.39 30.54c0-.6-.1-1.21-.16-1.82a187.7 187.7 0 01-15.72-40.47c-.53-2-1-3.81-1.41-5.53a6.23 6.23 0 00-7.33-4.66l-1.83.38a3.37 3.37 0 00-2.6 4c.7 3.15 1.57 6.68 2.6 10.47.06.13 14.37 27.73 26.45 37.63zM284.5 30.75q-.54-1.58-1.05-3.12.55 1.55 1.05 3.12zm1.28 3.61c-.33-.91-.65-1.81-1-2.71.35.9.67 1.8 1 2.71zm.37 1.03L286 35z" fill="#ffc043"/><path d="M283.41 27.51a.56.56 0 010 .12q.51 1.55 1.05 3.12l.31.9c.32.9.64 1.8 1 2.71.08.23.16.46.25.69l.15.39a139.12 139.12 0 0020.62 31.36 79.71 79.71 0 000-12c-12.08-9.9-26.39-37.5-26.45-37.6v.11c.27 1 .55 2 .85 3l.19.64c.24.83.49 1.68.75 2.53l.24.78c.35 1.09.69 2.17 1.04 3.25z" fill="#ff6937"/><path d="M254.9 115.87c-5-1.3-10.2-2.54-15.57-3.68a145 145 0 00-40.06 1.46l-.83.14a5.6 5.6 0 00-4.42 6.79l.59 2.53.08.33a2.58 2.58 0 00.17.49 2.75 2.75 0 002.33 1.63 2.38 2.38 0 00.75 0 125.7 125.7 0 0122.48-2.59h-.68c3.06-1.4 20.91-4.65 35.16-7.1zM229 123h-1.26z" fill="#ffc043"/><path d="M254.9 115.87c-14.25 2.45-32.1 5.7-35.16 7.08h.68c1.37 0 2.73-.05 4.11-.05h5.06a203.86 203.86 0 0144.17 2.24q1.88-1.33 3.69-2.78c-6.76-2.1-14.36-4.36-22.55-6.49z" fill="#ff6937"/><path d="M235.25 85.75a211.22 211.22 0 0132.29 2.87c-3.46-2.44-7.11-4.86-10.94-7.22A177 177 0 00226 71.33a143.57 143.57 0 00-34-3.68h-2a2.94 2.94 0 00-2.86 3.09l.12 2.25a6.36 6.36 0 006.36 6c2.47 0 4.93.07 7.36.21a142.1 142.1 0 0134.27 6.55z" fill="#ffc043"/><path d="M267.54 88.62a211.22 211.22 0 00-32.29-2.87c4.27 1.34 8.38 2.82 12.31 4.39a260.16 260.16 0 0142.9 17 234.44 234.44 0 00-22.92-18.52z" fill="#ff6937"/><path d="M267.74 20.52a171.68 171.68 0 0013.42 29.84 149.75 149.75 0 0011 16.65 137.21 137.21 0 0012.2 13.9 79 79 0 002.38-14.11 139.12 139.12 0 01-20.61-31.36q-2.4-5-4.52-10.25a169.12 169.12 0 01-4.11-11.36 2.65 2.65 0 00-3.12-1.83l-2.94.73a6.06 6.06 0 00-1.45.76 6.17 6.17 0 00-2.25 7.03zm-28.41 91.67c5.37 1.14 10.58 2.38 15.57 3.68 8.19 2.12 15.79 4.39 22.55 6.59 1.79-1.45 3.53-3 5.21-4.58-10.75-5.75-19.41-10.28-20-10.61q-6.06-2.33-12.51-4.42c-9.7-2.29-20.06-4.31-30.75-5.76-7.69-1-15.54-1.79-23.44-2.12a5.54 5.54 0 00-5.77 5.45l-.05 3.18a2.61 2.61 0 002.55 2.66q4.4.13 8.78.45a278.16 278.16 0 0137.86 5.48z" fill="#ffc043"/><path d="M223.5 96.08a215.14 215.14 0 0126.61 6.77q6.45 2.09 12.51 4.42a84.06 84.06 0 0127.4 2.54c.47-.59.93-1.19 1.39-1.81-.3-.27-.61-.55-.91-.84a260.16 260.16 0 00-42.9-17 220.13 220.13 0 00-25.43-5.88 2.61 2.61 0 00-3 2.19l-.45 2.87a5.91 5.91 0 00.05 2.06 5.76 5.76 0 00.82 2 6 6 0 003.91 2.68z" fill="#ffc043"/><path d="M262.58 107.25c.63.33 9.29 4.86 20 10.61a78.45 78.45 0 007.32-8.09 84.06 84.06 0 00-27.32-2.52zm41.3-3.18c0-.14.11-.43.22-.87l-.38.7zm-35.53-35.93c-13.42-8.68-29.82-13.09-30-13.14.07.09.16.17.24.26l1.09 1.15c.72.76 1.43 1.51 2.17 2.27.43.45.88.9 1.33 1.35l2.06 2.08c22.26 10.66 40.33 24.94 52.4 36q.9-1.68 1.71-3.39a211.33 211.33 0 01-31-26.58z" fill="#ff6937"/><path d="M238.65 30.76a245.45 245.45 0 0027.41 35c.75.8 1.51 1.6 2.29 2.4a211.33 211.33 0 0031 26.58 80.17 80.17 0 004.29-11c-17.2-12.46-31.05-27.2-40.93-39.4-2.76-3.4-5.21-6.6-7.34-9.5-4.33-5.91-7.33-10.55-8.87-13a2.41 2.41 0 00-3.23-.83l-1.44.82-1.09.62a6 6 0 00-2.09 8.31zM256.6 81.4c3.83 2.36 7.48 4.78 10.94 7.22a234.44 234.44 0 0122.92 18.52c.3.29.61.57.91.84a79.19 79.19 0 005.14-7.85c.39-.67.75-1.34 1.12-2-12.07-11.06-30.14-25.34-52.4-36a159.37 159.37 0 00-32.7-11.63h-.09a2.94 2.94 0 00-3.55 2.26l-.48 2.24a6.26 6.26 0 004.45 7.31h.09A161.06 161.06 0 01256.6 81.4zm46.96 22.78c-.13.24-.28.47-.42.71l.72-.72v-.1l-.16-.17c-.04.1-.08.19-.14.28zm-36.67 22.15l4.54.51c.79-.52 1.56-1 2.33-1.6a203.86 203.86 0 00-44.17-2.24 170.05 170.05 0 00-17.25 1.94l-1.22.22a3.64 3.64 0 00-2.78 2.32h48.15c3.35-.4 6.83-.78 10.4-1.15z" fill="#ffc043"/><path d="M271.43 126.84l-4.54-.51c-3.57.37-7.05.75-10.4 1.15h13.94z" fill="#ff6937"/><path d="M312.5 10l-5.92-.36 6.55 4.91-.29.51.29-.51 4.47 3.35 9.73 7.29L375 60.82V53l-11.1-7.66z" fill="#ffe3ac"/><path d="M294.55 117.07a85.93 85.93 0 01-10.4 10.41H296c-.57-3.39-1-6.86-1.45-10.41zm23.06-99.22a170.81 170.81 0 0013.46 84.09 25.41 25.41 0 0135 25.54H375V60.82l-47.66-35.68z" fill="#e11900"/><path d="M148.53 72a6.26 6.26 0 01-8.39 3.32c-25-11.45-40.58-26.75-50.08-39.62q-2.28-3.09-4.11-6c-1.77-2.7-3.24-5.3-4.45-7.61a98.18 98.18 0 005.88 10.52c1.22 1.91 2.58 3.9 4.11 6 9.51 12.83 25.11 28.12 50.08 39.58a6.25 6.25 0 008.43-3.32l.7-1.71a3.22 3.22 0 00-1.21-3.9 3.17 3.17 0 01-.22 1zM91 15.3a6.15 6.15 0 00-.57-1c.36.75.77 1.56 1.22 2.4-.27-.48-.49-.96-.65-1.4zM12.61 98c15.77-2.63 36.49-9.61 58-26.66a6.22 6.22 0 002.25-6A6.19 6.19 0 0170.64 69c-21.54 17-42.26 24-58 26.65-2.53.42-4.93.73-7.18 1Q2.55 96.91 0 97v2.3c1.7-.08 3.51-.2 5.43-.39 2.25-.22 4.65-.53 7.18-.91z" fill="#ffe3ac"/><path d="M12.61 95.67C28.38 93 49.1 86.07 70.64 69a6.26 6.26 0 00.84-9l-1.2-1.4a3.22 3.22 0 00-4.48-.38 122.17 122.17 0 01-42.24 23.12A101.33 101.33 0 0112.88 84l-1.4.26A96 96 0 010 85.56V97q2.55-.11 5.43-.39c2.25-.21 4.65-.52 7.18-.94z" fill="#ffc043"/><path d="M71.64 108.54l1-1a90.06 90.06 0 0116.17-11.6A6.25 6.25 0 0092 89.56a6.26 6.26 0 01-3.16 4.52 90.06 90.06 0 00-16.12 11.65l-1 1a102.89 102.89 0 00-7.66 7.9 112.8 112.8 0 00-9.73 12.9h1.23a113.83 113.83 0 018.5-11 101.09 101.09 0 017.58-7.99z" fill="#ffe3ac"/><path d="M71.64 106.68l1-1a90.06 90.06 0 0116.17-11.6 6.27 6.27 0 002.82-7.73l-1-2.62a2.75 2.75 0 00-3.75-1.5A88.67 88.67 0 0071.27 92c-1.8 1.38-3.67 2.91-5.59 4.61a120.49 120.49 0 00-24.85 30.85h13.42A112.8 112.8 0 0164 114.58a102.89 102.89 0 017.64-7.9z" fill="#ffc043"/><path d="M326.93 104.1a25.53 25.53 0 014.14-2.16 170.81 170.81 0 01-13.46-84.09l-4.47-3.35-.29.51-5.53 9.65v.08c.28.58.55 1.19.8 1.81a86.94 86.94 0 01-4 76.65c-.11.44-.18.73-.22.87v.1l-.72.72a87.12 87.12 0 01-8.59 12.18c.4 3.55.88 7 1.41 10.41h19.45a25.41 25.41 0 0111.48-23.38z" fill="#ff6937"/><path d="M294.55 117.07a87.12 87.12 0 008.59-12.18c.14-.24.29-.47.42-.71s.1-.19.16-.28l.38-.7a86.94 86.94 0 004-76.65c-.26-.6-.52-1.21-.8-1.81v-.08l5.55-9.66.29-.51-6.55-4.91-3.92 6.84-2.91 5.07-1.62 2.84A79.72 79.72 0 01306.62 53c.06.61.11 1.22.16 1.82a78.34 78.34 0 01-2.37 26.08c-.25.92-.5 1.85-.78 2.77a80.17 80.17 0 01-4.29 11q-.81 1.71-1.71 3.39c-.37.68-.73 1.35-1.12 2a79.19 79.19 0 01-5.14 7.85c-.46.62-.92 1.22-1.39 1.81a78.45 78.45 0 01-7.32 8.09 83.234 83.234 0 01-5.21 4.58q-1.81 1.44-3.69 2.78c-.77.55-1.54 1.08-2.33 1.6l-1 .64h13.72a85.93 85.93 0 0010.4-10.34zM81.5 22.09c1.21 2.31 2.68 4.91 4.5 7.66q1.83 2.87 4.11 6c9.5 12.87 25.11 28.17 50.08 39.62a6.26 6.26 0 008.34-3.37l.69-1.71a3.27 3.27 0 00-1.69-4.16A122.2 122.2 0 01107.8 39a100.42 100.42 0 01-7.21-8.32l-.86-1.13a91.8 91.8 0 01-8.12-12.85c-.45-.84-.86-1.65-1.22-2.4s-.6-1.28-.86-1.85A6.26 6.26 0 0082.07 9l-2.7.78a2.75 2.75 0 00-1.82 3.6 81.31 81.31 0 003.95 8.71zm280.58 89.53a25.42 25.42 0 00-46.67 15.86h50.67a25.3 25.3 0 00-4-15.86z" fill="#ffc043"/></svg>